<?xml version="1.0"?><svg width="300" height="300" xmlns="http://www.w3.org/2000/svg">
 <title>Blue Cup</title>

 <metadata id="metadata2878">image/svg+xml</metadata>
 <g>
  <title>Layer 1</title>
  <g transform="matrix(1.73061, 0, 0, 1.73061, -509.389, -1478.37)" id="g8605">
   <path fill="#CCCDC6" fill-rule="evenodd" stroke="#000000" stroke-width="1.597702" stroke-linecap="round" stroke-linejoin="round" stroke-miterlimit="4" id="path8500" d="m354.519745,910.11261l-4.065887,49.255493c0.392944,7.232178 11.101776,13.038574 24.254608,13.038574c13.152802,0 23.861633,-5.806396 24.254547,-13.038574l-4.065857,-49.255493l-40.377411,0z"/>
   <path fill="#CCCDC6" fill-rule="evenodd" stroke="#000000" stroke-width="1.597702" stroke-linecap="round" stroke-linejoin="round" stroke-miterlimit="4" id="rect8488" d="m374.708435,979.33905c-13.923004,0 -25.259003,-6.161011 -25.675018,-13.834961l0.352997,-9.724976c0.001007,-0.280029 0.192993,-0.411011 0.524994,-0.432007l-0.065979,0.462036c-0.972015,6.810913 12.453003,11.42395 24.863007,11.42395c12.409973,0 25.833984,-4.613037 24.862976,-11.42395l-0.065979,-0.462036c0.332001,0.020996 0.523987,0.151978 0.524994,0.432007l0.352997,9.724976c-0.416016,7.67395 -11.752014,13.834961 -25.674988,13.834961l0,0z"/>
   <path fill="#CCCDC6" fill-rule="evenodd" d="m397.88092,962.924622c-1.896851,2.706787 -5.191864,3.520508 -9.71875,5.21875c0,0 0.15625,6.09375 0.15625,6.09375c4.914307,-2.377197 9.164825,-4.819092 9.8125,-8.0625l-0.25,-3.25z" id="path8508"/>
   <path fill="#CCCDC6" fill-rule="evenodd" stroke="#000000" stroke-width="2.872164" stroke-linecap="round" stroke-linejoin="round" stroke-miterlimit="4" d="m394.897156,910.63324c0,4.609131 -9.038788,8.345703 -20.188721,8.345703c-11.149902,0 -20.18869,-3.736572 -20.18869,-8.345703c0,-4.609253 9.038788,-8.345703 20.18869,-8.345703c11.149933,0 20.188721,3.73645 20.188721,8.345703z" id="path8490"/>
   <path fill="#CCCDC6" fill-rule="evenodd" d="m393.24881,916.330872c-1.069946,1.718872 -3.503174,2.394409 -6.805389,3.402344c1.11911,11.969849 0.605225,32.226929 1.262268,43.535156c3.704407,-1.041626 6.83844,-2.573242 8.643982,-4.469482l-3.100861,-42.468018z" id="path8574"/>
  </g>
 </g>
</svg>